<svg version="1.2" xmlns="http://www.w3.org/2000/svg" viewBox="0 0 128 146" width="128" height="146">
	<style>
		.s0 { fill: #f7f7f7 } 
		.s1 { fill: #f8f8f8 } 
		.s2 { fill: #f6f6f6 } 
		.s3 { fill: #eaeaea } 
	</style>
	<path class="s0" d="m21.36 27.48q1.06-0.01 2.16-0.02 3.5-0.02 7.01 0.01 2.45-0.01 4.9-0.01 5.13-0.01 10.25 0.02 6.56 0.03 13.11-0.02 5.06-0.01 10.12 0 2.41 0.01 4.83-0.01 3.38-0.01 6.77 0.03 1.91 0.01 3.88 0.01c5.16 0.73 8.72 2.37 12.14 6.24 3.52 5.02 4.19 9.28 4.1 15.31q0.01 1.3 0.02 2.63 0.02 4.26-0.02 8.52 0 2.98 0.01 5.96 0 6.23-0.04 12.47-0.05 7.96-0.01 15.93 0.01 6.15-0.02 12.31 0 2.93 0.01 5.87 0 4.11-0.05 8.23 0.01 1.19 0.02 2.42c-0.09 5.58-1.35 10-4.55 14.62-5.3 4.21-9.17 5.12-15.82 5.19q-1.03 0.02-2.09 0.03-3.43 0.03-6.85 0.05-1.17 0.01-2.37 0.02-6.21 0.04-12.42 0.06-5.12 0.02-10.25 0.08-6.2 0.07-12.4 0.08-2.36 0.01-4.71 0.05c-15.46 0.22-15.46 0.22-20.48-3.92-4.48-4.55-6.06-10.01-6.16-16.26q0.01-1.19 0.02-2.42-0.02-1.3-0.03-2.63-0.03-4.26-0.01-8.52 0-2.98-0.02-5.96-0.01-6.23 0.01-12.47 0.02-7.97-0.04-15.93-0.03-6.15-0.01-12.31 0-2.93-0.02-5.87-0.02-4.11 0.02-8.23-0.02-1.19-0.04-2.42c0.1-5.98 1.8-10.05 5.67-14.62 4.42-3.83 7.58-4.5 13.36-4.52zm-9.36 14.52c-0.49 2.98-0.69 5.39-0.65 8.37q-0.01 1.24-0.02 2.51-0.03 4.11 0.01 8.21-0.01 2.86-0.02 5.72-0.01 5.99 0.03 11.98 0.03 7.67-0.02 15.34-0.02 5.9 0 11.81 0.01 2.82-0.01 5.65-0.01 3.96 0.03 7.91-0.01 1.16-0.03 2.35c0.08 3.84 0.51 6.49 2.8 9.63 3.49 3.05 5.03 3.27 9.61 3.26 0.98 0.02 0.98 0.02 1.99 0.03q3.23 0.01 6.47-0.04 2.26 0 4.51 0 4.73 0 9.46-0.06 6.04-0.06 12.09-0.03 4.66 0.01 9.32-0.03 2.23-0.01 4.46 0 3.12-0.01 6.24-0.06 1.76-0.01 3.58-0.03c3.77-0.62 5.44-1.87 8.15-4.52 1.58-3.17 1.17-6.58 1.18-10.06q0.01-1.24 0.02-2.52 0.02-4.14 0.04-8.29 0-1.4 0.01-2.85 0.03-7.48 0.05-14.95 0.02-7.74 0.08-15.47 0.04-5.93 0.04-11.87 0.01-2.85 0.03-5.7 0.04-3.99 0.02-7.97 0.02-1.18 0.04-2.39c-0.04-3.56-0.2-5.53-2.41-8.39-3.66-2.69-5.96-2.68-10.49-2.73q-0.98-0.02-1.99-0.03-3.26-0.03-6.51-0.05-1.11-0.01-2.25-0.02-5.9-0.04-11.79-0.06-6.08-0.03-12.16-0.11-4.68-0.05-9.37-0.05-2.24-0.01-4.48-0.05-3.14-0.04-6.28-0.02-1.78-0.02-3.61-0.03c-4.26 0.82-5.67 2.08-8.17 5.61z"/>
	<path class="s1" d="m37.64 2.84c1.2-0.01 1.2-0.01 2.42-0.02q3.99-0.02 7.98-0.02 2.77-0.01 5.54-0.02 5.81-0.02 11.63-0.02 7.44-0.01 14.88-0.06 5.73-0.02 11.45-0.02 2.74-0.01 5.48-0.03 3.85-0.02 7.7-0.01c1.13-0.01 1.13-0.01 2.28-0.02 4.74 0.03 7.97 0.87 12 3.38 3.63 3.93 6.24 7.58 6.26 13.03q0.01 1.18 0.02 2.4 0 1.28-0.01 2.61 0.01 1.36 0.02 2.76 0.02 4.52 0.01 9.05 0.01 3.14 0.01 6.28 0.01 6.58 0.01 13.17-0.01 8.45 0.03 16.89 0.02 6.49 0.01 12.98 0 3.11 0.02 6.23 0.01 4.35-0.01 8.69 0.01 1.29 0.03 2.62c-0.06 5.85-0.06 5.85-1.76 8.05-1.64 1.24-1.64 1.24-4.26 0.99-2.38-0.75-2.38-0.75-3.38-1.75q-0.15-4.29-0.14-8.59-0.01-1.34-0.01-2.73-0.01-2.94-0.02-5.89-0.01-4.65-0.04-9.31-0.09-13.25-0.12-26.5-0.01-8.09-0.08-16.19-0.02-3.09-0.01-6.17 0-4.32-0.05-8.64 0.01-1.28 0.02-2.59c-0.06-3.62-0.18-5.79-2.1-8.92-3.37-2.02-6.38-2.02-10.2-1.97-1.16-0.01-1.16-0.01-2.35-0.02q-2.52-0.01-5.05 0-3.99 0.02-7.98-0.01-7.03-0.04-14.05-0.03-11.26 0-22.52-0.06-3.93-0.01-7.87 0.01-2.4-0.01-4.81-0.02-1.09 0.01-2.21 0.02c-2.94-0.03-4.94-0.07-7.4-1.75-1.01-1.64-1.01-1.64-0.76-4.27 1.51-4.79 5-3.52 9.39-3.53z"/>
	<path class="s2" d="m35.24 77.87q1.67 0 3.39-0.01c1.82 0 1.82 0 3.68 0.01q1.85 0 3.76-0.01 3.94 0 7.88 0.01 5.06 0.01 10.12 0 4.81-0.01 9.62 0 1.81-0.01 3.68-0.01c1.68 0.01 1.68 0.01 3.39 0.01q1.48 0 3 0c2.24 0.13 2.24 0.13 3.24 1.13 0.19 2.94 0.19 2.94 0 6-2.59 2.59-3.64 2.26-7.24 2.27-1.65 0.02-1.65 0.02-3.32 0.03q-1.77 0-3.6 0c-1.82 0.01-1.82 0.01-3.67 0.01q-3.86 0.01-7.71 0.01-5.92 0-11.83 0.04-3.74 0-7.47 0c-1.78 0.02-1.78 0.02-3.6 0.03q-1.63-0.01-3.32-0.02c-1.45 0-1.45 0-2.92 0q-1.15-0.18-2.32-0.37c-2-3-2-3-1.69-5.63 1.22-4.2 2.81-3.5 6.93-3.5z"/>
	<path class="s0" d="m34.03 58.85c1.28 0 1.28 0 2.59-0.01q1.38-0.01 2.81-0.01 1.42 0 2.88-0.01 3.01-0.01 6.03-0.01 4.62 0 9.25-0.03 2.92-0.01 5.84-0.01c1.39-0.01 1.39-0.01 2.81-0.02q1.28 0 2.6 0.01 1.13-0.01 2.29-0.01c1.87 0.25 1.87 0.25 3.87 2.25-0.57 5.57-0.57 5.57-2 7q-2.01 0.15-4.03 0.16-1.27 0.02-2.59 0.03c-1.39 0.01-1.39 0.01-2.81 0.01q-1.42 0.01-2.88 0.02-3.01 0.01-6.03 0.02-4.62 0.02-9.25 0.07-2.92 0.01-5.84 0.02c-1.39 0.02-1.39 0.02-2.81 0.04-1.29-0.01-1.29-0.01-2.6-0.01-1.14 0-1.14 0-2.29 0.01q-0.92-0.18-1.87-0.37c-2-3-2-3-1.69-5.63 1.09-3.76 2.02-3.5 5.72-3.52z"/>
	<path class="s3" d="m37.47 95.73q1.93 0 3.92 0 1 0 2.04 0.01 3.09 0.01 6.18-0.01 1.93 0 3.92 0 1.78 0.01 3.61 0.01c2.86 0.26 2.86 0.26 4.86 2.26 0.25 3 0.25 3 0 6-3.36 3.36-7.77 2.3-12.34 2.32q-1 0-2.04 0-3.07 0-6.15 0.04-1.92 0-3.9 0-1.77 0.01-3.6 0.01c-2.97-0.37-2.97-0.37-4.89-1.73-1.08-1.64-1.08-1.64-0.89-4.2 1.71-5.14 4.36-4.7 9.28-4.71z"/>
</svg>